<?xml version="1.0" encoding="utf-8"?>
<!-- Generator: Adobe Illustrator 19.2.1, SVG Export Plug-In . SVG Version: 6.00 Build 0)  -->
<svg version="1.1" id="Layer_1" xmlns:sketch="http://www.bohemiancoding.com/sketch/ns"
	 xmlns="http://www.w3.org/2000/svg" xmlns:xlink="http://www.w3.org/1999/xlink" x="0px" y="0px" viewBox="0 0 141.7 200"
	 style="enable-background:new 0 0 141.7 200;" xml:space="preserve">
<style type="text/css">
	.st0{fill:#E44F26;}
	.st1{fill:#F1662A;}
	.st2{fill:#EBEBEB;}
	.st3{fill:#010101;}
	.st4{fill:#FFFFFF;}
</style>
<title>Slice 1</title>
<description>Created with Sketch (http://www.bohemiancoding.com/sketch)</description>
<g id="Page_1">
	<g id="Group">
		<path id="Shape" class="st0" d="M12.9,183.9L0,39.3h141.7l-12.9,144.6l-58,16.1L12.9,183.9z"/>
		<path id="Shape_1_" class="st1" d="M70.8,187.7l46.9-13l11-123.6H70.8V187.7z"/>
		<path id="Shape_2_" class="st2" d="M70.8,104.8H47.4l-1.6-18.2h25.1V68.9h-0.1H26.4l0.4,4.8l4.4,48.9h39.7V104.8z"/>
		<path id="Shape_3_" class="st2" d="M70.8,150.8L70.8,150.8L51,145.5l-1.3-14.1h-9.6h-8.2l2.5,27.9l36.3,10.1l0.1,0V150.8z"/>
		<path id="Shape_4_" class="st3" d="M13.2,0h9v8.9h8.2V0h9v27h-9v-9h-8.2v9h-9V0L13.2,0z"/>
		<path id="Shape_5_" class="st3" d="M51.3,8.9h-7.9V0h24.9v8.9h-7.9v18h-9L51.3,8.9L51.3,8.9L51.3,8.9z"/>
		<path id="Shape_6_" class="st3" d="M72.2,0h9.4l5.8,9.5L93.2,0h9.4v27h-9V13.6l-6.2,9.6h-0.2L81,13.6V27h-8.8L72.2,0L72.2,0z"/>
		<path id="Shape_7_" class="st3" d="M107.1,0h9v18.1h12.7V27h-21.7L107.1,0L107.1,0z"/>
		<path id="Shape_8_" class="st4" d="M70.8,104.8v17.7h21.8l-2.1,23l-19.8,5.3v18.5l36.4-10.1l0.3-3l4.2-46.7l0.4-4.8h-4.8H70.8z"/>
		<path id="Shape_9_" class="st4" d="M70.8,68.9v11v6.7v0h42.8h0.1l0.4-4l0.8-9l0.4-4.8H70.8z"/>
	</g>
</g>
</svg>
