<?xml version="1.0" encoding="utf-8"?>
<!-- Generator: Adobe Illustrator 19.2.1, SVG Export Plug-In . SVG Version: 6.00 Build 0)  -->
<svg version="1.1" id="Layer_1" xmlns:sketch="http://www.bohemiancoding.com/sketch/ns"
	 xmlns="http://www.w3.org/2000/svg" xmlns:xlink="http://www.w3.org/1999/xlink" x="0px" y="0px" viewBox="0 0 141.7 200"
	 style="enable-background:new 0 0 141.7 200;" xml:space="preserve">
<style type="text/css">
	.st0{fill:#131313;}
	.st1{fill:#1572B6;}
	.st2{fill:#33A9DC;}
	.st3{fill:#FFFFFF;}
	.st4{fill:#EBEBEB;}
</style>
<title>Slice 1</title>
<description>Created with Sketch (http://www.bohemiancoding.com/sketch)</description>
<g id="Page_1">
	<g id="Layer_1_1_">
		<path id="Shape" class="st0" d="M111,7.4H99.3l12.2,13.3V27H86.3v-7.4h12.2L86.3,6.3V0H111V7.4L111,7.4z M81.3,7.4H69.6l12.2,13.3
			V27H56.6v-7.4h12.2L56.6,6.3V0h24.7V7.4L81.3,7.4z M51.9,7.7H39.2v11.6h12.7V27H30.2V0h21.7V7.7L51.9,7.7z"/>
		<path id="Shape_1_" class="st1" d="M12.9,183.9L0,39.3h141.7l-12.9,144.6l-58,16.1L12.9,183.9z"/>
		<path id="Shape_2_" class="st2" d="M70.8,187.7l46.9-13l11-123.6H70.8V187.7z"/>
		<g id="Group" transform="translate(55.000000, 142.000000)">
			<path id="Shape_3_" class="st3" d="M15.8-38.5h23.5l1.6-18.2H15.8v-17.7h0.1h44.4l-0.4,4.8l-4.4,48.9H15.8V-38.5z"/>
			<path id="Shape_4_" class="st4" d="M15.9,7.6L15.9,7.6L-3.9,2.3l-1.3-14.1h-9.6H-23l2.5,27.8l36.3,10.1l0.1,0V7.6z"/>
			<path id="Shape_5_" class="st3" d="M37.8-21.5L35.7,2.3L15.9,7.6v18.5L52.3,16l0.3-3l3.1-34.5H37.8z"/>
			<path id="Shape_6_" class="st4" d="M15.9-74.4v11v6.7v0h-42.8h-0.1l-0.4-4l-0.8-9l-0.4-4.8H15.9z"/>
			<path id="Shape_7_" class="st4" d="M15.8-38.5v11v6.7v0H-3.6h-0.1l-0.4-4l-0.8-9l-0.4-4.8H15.8z"/>
		</g>
	</g>
</g>
</svg>
