<?xml version="1.0" encoding="utf-8"?>
<!-- Generator: Adobe Illustrator 19.2.1, SVG Export Plug-In . SVG Version: 6.00 Build 0)  -->
<svg version="1.1" id="Capa_1" xmlns="http://www.w3.org/2000/svg" xmlns:xlink="http://www.w3.org/1999/xlink" x="0px" y="0px"
	 viewBox="0 0 100 100" style="enable-background:new 0 0 100 100;" xml:space="preserve">
<style type="text/css">
	.st0{fill:#FFFFFF;}
</style>
<g>
	<g>
		<path class="st0" d="M77.5,65H22.4c-0.7,0-1.3,0.2-1.7,0.8c-0.5,0.5-0.8,1.1-0.8,1.7v5c0,0.7,0.2,1.3,0.8,1.7
			c0.5,0.5,1.1,0.8,1.7,0.8h55c0.7,0,1.3-0.2,1.7-0.8c0.5-0.5,0.8-1.1,0.8-1.7v-5c0-0.7-0.2-1.3-0.8-1.7C78.8,65.2,78.2,65,77.5,65z
			"/>
		<path class="st0" d="M79.3,25.8c-0.5-0.5-1.1-0.8-1.7-0.8H22.4c-0.7,0-1.3,0.2-1.7,0.8c-0.5,0.5-0.8,1.1-0.8,1.7v5
			c0,0.7,0.2,1.3,0.8,1.7c0.5,0.5,1.1,0.8,1.7,0.8h55c0.7,0,1.3-0.2,1.7-0.8c0.5-0.5,0.8-1.1,0.8-1.7v-5
			C80,26.8,79.8,26.2,79.3,25.8z"/>
		<path class="st0" d="M77.5,45H22.4c-0.7,0-1.3,0.2-1.7,0.8c-0.5,0.5-0.8,1.1-0.8,1.7v5c0,0.7,0.2,1.3,0.8,1.7
			c0.5,0.5,1.1,0.8,1.7,0.8h55c0.7,0,1.3-0.2,1.7-0.8c0.5-0.5,0.8-1.1,0.8-1.7v-5c0-0.7-0.2-1.3-0.8-1.7C78.8,45.3,78.2,45,77.5,45z
			"/>
	</g>
</g>
</svg>
